<svg xmlns="http://www.w3.org/2000/svg" viewBox="0 0 512 512">
  <defs>
    <linearGradient id="bg" x1="0" y1="0" x2="1" y2="1">
      <stop offset="0" stop-color="#fff4f9"/>
      <stop offset="1" stop-color="#f7b4cc"/>
    </linearGradient>
  </defs>
  <rect width="512" height="512" rx="116" fill="url(#bg)"/>
  <rect x="116" y="132" width="280" height="250" rx="42" fill="#fff" stroke="#e97fa5" stroke-width="14"/>
  <path d="M256 132v250M116 220h280" fill="none" stroke="#f2b1c8" stroke-width="12"/>
  <rect x="145" y="248" width="82" height="104" rx="14" fill="#ffe2ed"/>
  <rect x="285" y="248" width="82" height="104" rx="14" fill="#f5ecff"/>
  <path d="M181 93c15-31 57-31 75 0 18-31 60-31 75 0-8 34-35 49-75 72-40-23-67-38-75-72z" fill="#ee78a4"/>
  <circle cx="242" cy="301" r="7" fill="#d66b93"/>
  <circle cx="270" cy="301" r="7" fill="#d66b93"/>
  <path d="M242 326c10 10 18 10 28 0" fill="none" stroke="#d66b93" stroke-width="7" stroke-linecap="round"/>
  <path d="M103 109l14 29 29 14-29 14-14 29-14-29-29-14 29-14z" fill="#fff" opacity=".9"/>
  <path d="M413 321l10 20 20 10-20 10-10 20-10-20-20-10 20-10z" fill="#fff" opacity=".9"/>
</svg>